<mxfile host="app.diagrams.net" modified="2024-01-27T15:35:45.806Z" agent="Mozilla/5.0 (Windows NT 10.0; Win64; x64) AppleWebKit/537.36 (KHTML, like Gecko) Chrome/120.0.0.0 Safari/537.36" etag="rvNXophhehzFN2PGr5hI" version="23.0.2" type="device">
  <diagram name="Page-1" id="ZqyEAKrbpD7bxotnxF_v">
    <mxGraphModel dx="880" dy="434" grid="1" gridSize="10" guides="1" tooltips="1" connect="1" arrows="1" fold="1" page="1" pageScale="1" pageWidth="850" pageHeight="1100" math="0" shadow="0">
      <root>
        <mxCell id="0" />
        <mxCell id="1" parent="0" />
        <mxCell id="RT1CpfB4tRmfm0w9Hz5c-1" value="&lt;font style=&quot;font-size: 24px;&quot;&gt;&lt;b&gt;LinkedIN&lt;/b&gt;&lt;/font&gt;" style="rounded=0;whiteSpace=wrap;html=1;fillColor=#d80073;strokeColor=#A50040;fontColor=#ffffff;" vertex="1" parent="1">
          <mxGeometry x="120" y="20" width="600" height="40" as="geometry" />
        </mxCell>
        <mxCell id="RT1CpfB4tRmfm0w9Hz5c-6" style="edgeStyle=orthogonalEdgeStyle;rounded=0;orthogonalLoop=1;jettySize=auto;html=1;entryX=0.5;entryY=0;entryDx=0;entryDy=0;dashed=1;" edge="1" parent="1" source="RT1CpfB4tRmfm0w9Hz5c-2" target="RT1CpfB4tRmfm0w9Hz5c-3">
          <mxGeometry relative="1" as="geometry" />
        </mxCell>
        <mxCell id="RT1CpfB4tRmfm0w9Hz5c-7" style="edgeStyle=orthogonalEdgeStyle;rounded=0;orthogonalLoop=1;jettySize=auto;html=1;dashed=1;" edge="1" parent="1" source="RT1CpfB4tRmfm0w9Hz5c-2" target="RT1CpfB4tRmfm0w9Hz5c-4">
          <mxGeometry relative="1" as="geometry" />
        </mxCell>
        <mxCell id="RT1CpfB4tRmfm0w9Hz5c-8" style="edgeStyle=orthogonalEdgeStyle;rounded=0;orthogonalLoop=1;jettySize=auto;html=1;dashed=1;" edge="1" parent="1" source="RT1CpfB4tRmfm0w9Hz5c-2" target="RT1CpfB4tRmfm0w9Hz5c-5">
          <mxGeometry relative="1" as="geometry" />
        </mxCell>
        <mxCell id="RT1CpfB4tRmfm0w9Hz5c-2" value="&lt;font style=&quot;font-size: 16px;&quot;&gt;&lt;b&gt;3 Tier Application\website&lt;/b&gt;&lt;/font&gt;" style="rounded=0;whiteSpace=wrap;html=1;fillColor=#a20025;fontColor=#ffffff;strokeColor=#6F0000;" vertex="1" parent="1">
          <mxGeometry x="120" y="64" width="600" height="40" as="geometry" />
        </mxCell>
        <mxCell id="RT1CpfB4tRmfm0w9Hz5c-9" style="edgeStyle=orthogonalEdgeStyle;rounded=0;orthogonalLoop=1;jettySize=auto;html=1;dashed=1;dashPattern=8 8;" edge="1" parent="1" source="RT1CpfB4tRmfm0w9Hz5c-3" target="RT1CpfB4tRmfm0w9Hz5c-5">
          <mxGeometry relative="1" as="geometry" />
        </mxCell>
        <mxCell id="RT1CpfB4tRmfm0w9Hz5c-14" style="edgeStyle=orthogonalEdgeStyle;rounded=0;orthogonalLoop=1;jettySize=auto;html=1;exitX=0.5;exitY=1;exitDx=0;exitDy=0;entryX=0.5;entryY=0;entryDx=0;entryDy=0;dashed=1;dashPattern=1 1;" edge="1" parent="1" source="RT1CpfB4tRmfm0w9Hz5c-3" target="RT1CpfB4tRmfm0w9Hz5c-11">
          <mxGeometry relative="1" as="geometry" />
        </mxCell>
        <mxCell id="RT1CpfB4tRmfm0w9Hz5c-3" value="&lt;b&gt;Front End Devleoper&lt;/b&gt;" style="rounded=1;whiteSpace=wrap;html=1;fillColor=#008a00;fontColor=#ffffff;strokeColor=#005700;" vertex="1" parent="1">
          <mxGeometry x="120" y="200" width="120" height="80" as="geometry" />
        </mxCell>
        <mxCell id="RT1CpfB4tRmfm0w9Hz5c-16" style="edgeStyle=orthogonalEdgeStyle;rounded=0;orthogonalLoop=1;jettySize=auto;html=1;entryX=0.5;entryY=0;entryDx=0;entryDy=0;dashed=1;dashPattern=1 1;" edge="1" parent="1" source="RT1CpfB4tRmfm0w9Hz5c-4" target="RT1CpfB4tRmfm0w9Hz5c-13">
          <mxGeometry relative="1" as="geometry" />
        </mxCell>
        <mxCell id="RT1CpfB4tRmfm0w9Hz5c-4" value="&lt;b&gt;Database Administrator&lt;/b&gt;" style="rounded=1;whiteSpace=wrap;html=1;fillColor=#6a00ff;fontColor=#ffffff;strokeColor=#3700CC;" vertex="1" parent="1">
          <mxGeometry x="600" y="200" width="120" height="80" as="geometry" />
        </mxCell>
        <mxCell id="RT1CpfB4tRmfm0w9Hz5c-10" style="edgeStyle=orthogonalEdgeStyle;rounded=0;orthogonalLoop=1;jettySize=auto;html=1;dashed=1;dashPattern=8 8;" edge="1" parent="1" source="RT1CpfB4tRmfm0w9Hz5c-5" target="RT1CpfB4tRmfm0w9Hz5c-4">
          <mxGeometry relative="1" as="geometry" />
        </mxCell>
        <mxCell id="RT1CpfB4tRmfm0w9Hz5c-15" style="edgeStyle=orthogonalEdgeStyle;rounded=0;orthogonalLoop=1;jettySize=auto;html=1;entryX=0.5;entryY=0;entryDx=0;entryDy=0;dashed=1;dashPattern=1 1;" edge="1" parent="1" source="RT1CpfB4tRmfm0w9Hz5c-5" target="RT1CpfB4tRmfm0w9Hz5c-12">
          <mxGeometry relative="1" as="geometry" />
        </mxCell>
        <mxCell id="RT1CpfB4tRmfm0w9Hz5c-5" value="&lt;b&gt;Backend Developer&lt;/b&gt;" style="rounded=1;whiteSpace=wrap;html=1;fillColor=#1ba1e2;fontColor=#ffffff;strokeColor=#006EAF;" vertex="1" parent="1">
          <mxGeometry x="360" y="200" width="120" height="80" as="geometry" />
        </mxCell>
        <mxCell id="RT1CpfB4tRmfm0w9Hz5c-20" style="edgeStyle=orthogonalEdgeStyle;rounded=0;orthogonalLoop=1;jettySize=auto;html=1;entryX=0.5;entryY=0;entryDx=0;entryDy=0;dashed=1;dashPattern=1 1;" edge="1" parent="1" source="RT1CpfB4tRmfm0w9Hz5c-11" target="RT1CpfB4tRmfm0w9Hz5c-17">
          <mxGeometry relative="1" as="geometry" />
        </mxCell>
        <mxCell id="RT1CpfB4tRmfm0w9Hz5c-11" value="&lt;b&gt;Angluar JS/React JS/NextJS/Vue JS&lt;/b&gt;" style="whiteSpace=wrap;html=1;aspect=fixed;fillColor=#fa6800;fontColor=#000000;strokeColor=#C73500;" vertex="1" parent="1">
          <mxGeometry x="130" y="320" width="110" height="110" as="geometry" />
        </mxCell>
        <mxCell id="RT1CpfB4tRmfm0w9Hz5c-12" value="&lt;b&gt;NodeJS/Java/ .net/python&lt;/b&gt;" style="whiteSpace=wrap;html=1;aspect=fixed;fillColor=#f0a30a;fontColor=#000000;strokeColor=#BD7000;" vertex="1" parent="1">
          <mxGeometry x="370" y="320" width="110" height="110" as="geometry" />
        </mxCell>
        <mxCell id="RT1CpfB4tRmfm0w9Hz5c-28" style="edgeStyle=orthogonalEdgeStyle;rounded=0;orthogonalLoop=1;jettySize=auto;html=1;dashed=1;dashPattern=1 1;" edge="1" parent="1" source="RT1CpfB4tRmfm0w9Hz5c-13" target="RT1CpfB4tRmfm0w9Hz5c-25">
          <mxGeometry relative="1" as="geometry" />
        </mxCell>
        <mxCell id="RT1CpfB4tRmfm0w9Hz5c-13" value="&lt;b&gt;Sql/Mysql/mongoDB&lt;/b&gt;" style="whiteSpace=wrap;html=1;aspect=fixed;fillColor=#e3c800;fontColor=#000000;strokeColor=#B09500;" vertex="1" parent="1">
          <mxGeometry x="610" y="320" width="110" height="110" as="geometry" />
        </mxCell>
        <mxCell id="RT1CpfB4tRmfm0w9Hz5c-26" style="edgeStyle=orthogonalEdgeStyle;rounded=0;orthogonalLoop=1;jettySize=auto;html=1;dashed=1;dashPattern=1 1;" edge="1" parent="1" source="RT1CpfB4tRmfm0w9Hz5c-17" target="RT1CpfB4tRmfm0w9Hz5c-23">
          <mxGeometry relative="1" as="geometry" />
        </mxCell>
        <mxCell id="RT1CpfB4tRmfm0w9Hz5c-17" value="&lt;b&gt;Code&lt;/b&gt;" style="ellipse;whiteSpace=wrap;html=1;fillColor=#a0522d;fontColor=#ffffff;strokeColor=#6D1F00;" vertex="1" parent="1">
          <mxGeometry x="120" y="480" width="120" height="40" as="geometry" />
        </mxCell>
        <mxCell id="RT1CpfB4tRmfm0w9Hz5c-27" style="edgeStyle=orthogonalEdgeStyle;rounded=0;orthogonalLoop=1;jettySize=auto;html=1;dashed=1;dashPattern=1 1;" edge="1" parent="1" source="RT1CpfB4tRmfm0w9Hz5c-18" target="RT1CpfB4tRmfm0w9Hz5c-24">
          <mxGeometry relative="1" as="geometry" />
        </mxCell>
        <mxCell id="RT1CpfB4tRmfm0w9Hz5c-18" value="&lt;b&gt;Code&lt;/b&gt;" style="ellipse;whiteSpace=wrap;html=1;fillColor=#a0522d;fontColor=#ffffff;strokeColor=#6D1F00;" vertex="1" parent="1">
          <mxGeometry x="365" y="480" width="120" height="40" as="geometry" />
        </mxCell>
        <mxCell id="RT1CpfB4tRmfm0w9Hz5c-21" style="edgeStyle=orthogonalEdgeStyle;rounded=0;orthogonalLoop=1;jettySize=auto;html=1;entryX=0.575;entryY=-0.075;entryDx=0;entryDy=0;entryPerimeter=0;dashed=1;dashPattern=1 1;" edge="1" parent="1" source="RT1CpfB4tRmfm0w9Hz5c-12" target="RT1CpfB4tRmfm0w9Hz5c-18">
          <mxGeometry relative="1" as="geometry" />
        </mxCell>
        <mxCell id="RT1CpfB4tRmfm0w9Hz5c-22" value="" style="image;aspect=fixed;perimeter=ellipsePerimeter;html=1;align=center;shadow=0;dashed=0;spacingTop=3;image=img/lib/active_directory/user.svg;" vertex="1" parent="1">
          <mxGeometry x="40" y="530" width="40" height="108.11" as="geometry" />
        </mxCell>
        <mxCell id="RT1CpfB4tRmfm0w9Hz5c-23" value="" style="image;points=[];aspect=fixed;html=1;align=center;shadow=0;dashed=0;image=img/lib/allied_telesis/computer_and_terminals/Personal_Computer_with_Server.svg;" vertex="1" parent="1">
          <mxGeometry x="149" y="570" width="62.400000000000006" height="62.400000000000006" as="geometry" />
        </mxCell>
        <mxCell id="RT1CpfB4tRmfm0w9Hz5c-24" value="" style="image;points=[];aspect=fixed;html=1;align=center;shadow=0;dashed=0;image=img/lib/allied_telesis/computer_and_terminals/Personal_Computer_with_Server.svg;" vertex="1" parent="1">
          <mxGeometry x="394" y="570" width="62.400000000000006" height="62.400000000000006" as="geometry" />
        </mxCell>
        <mxCell id="RT1CpfB4tRmfm0w9Hz5c-25" value="" style="image;points=[];aspect=fixed;html=1;align=center;shadow=0;dashed=0;image=img/lib/allied_telesis/computer_and_terminals/Personal_Computer_with_Server.svg;" vertex="1" parent="1">
          <mxGeometry x="620" y="530" width="112.4" height="112.4" as="geometry" />
        </mxCell>
        <mxCell id="RT1CpfB4tRmfm0w9Hz5c-29" value="&lt;b&gt;Frontend sever&lt;/b&gt;" style="rounded=0;whiteSpace=wrap;html=1;fillColor=#fad9d5;strokeColor=#ae4132;" vertex="1" parent="1">
          <mxGeometry x="120" y="660" width="120" height="20" as="geometry" />
        </mxCell>
        <mxCell id="RT1CpfB4tRmfm0w9Hz5c-30" value="&lt;b&gt;DB server&lt;/b&gt;" style="rounded=0;whiteSpace=wrap;html=1;fillColor=#fad9d5;strokeColor=#ae4132;" vertex="1" parent="1">
          <mxGeometry x="640" y="660" width="120" height="20" as="geometry" />
        </mxCell>
        <mxCell id="RT1CpfB4tRmfm0w9Hz5c-31" value="&lt;b&gt;Backend server&lt;/b&gt;" style="rounded=0;whiteSpace=wrap;html=1;fillColor=#fad9d5;strokeColor=#ae4132;" vertex="1" parent="1">
          <mxGeometry x="360" y="660" width="120" height="20" as="geometry" />
        </mxCell>
        <mxCell id="RT1CpfB4tRmfm0w9Hz5c-32" value="Devops Engineer" style="rounded=0;whiteSpace=wrap;html=1;" vertex="1" parent="1">
          <mxGeometry y="632.4" width="120" height="21.89" as="geometry" />
        </mxCell>
        <mxCell id="RT1CpfB4tRmfm0w9Hz5c-42" style="edgeStyle=orthogonalEdgeStyle;rounded=0;orthogonalLoop=1;jettySize=auto;html=1;entryX=0.5;entryY=0;entryDx=0;entryDy=0;" edge="1" parent="1" source="RT1CpfB4tRmfm0w9Hz5c-33" target="RT1CpfB4tRmfm0w9Hz5c-35">
          <mxGeometry relative="1" as="geometry" />
        </mxCell>
        <mxCell id="RT1CpfB4tRmfm0w9Hz5c-43" style="edgeStyle=orthogonalEdgeStyle;rounded=0;orthogonalLoop=1;jettySize=auto;html=1;entryX=0.5;entryY=0;entryDx=0;entryDy=0;" edge="1" parent="1" source="RT1CpfB4tRmfm0w9Hz5c-33" target="RT1CpfB4tRmfm0w9Hz5c-36">
          <mxGeometry relative="1" as="geometry" />
        </mxCell>
        <mxCell id="RT1CpfB4tRmfm0w9Hz5c-33" value="&lt;b&gt;Serever Have OS&amp;nbsp;&lt;/b&gt;" style="rounded=0;whiteSpace=wrap;html=1;fillColor=#647687;fontColor=#ffffff;strokeColor=#314354;" vertex="1" parent="1">
          <mxGeometry x="120" y="770" width="430" height="30" as="geometry" />
        </mxCell>
        <mxCell id="RT1CpfB4tRmfm0w9Hz5c-39" style="edgeStyle=orthogonalEdgeStyle;rounded=0;orthogonalLoop=1;jettySize=auto;html=1;" edge="1" parent="1" source="RT1CpfB4tRmfm0w9Hz5c-34" target="RT1CpfB4tRmfm0w9Hz5c-38">
          <mxGeometry relative="1" as="geometry" />
        </mxCell>
        <mxCell id="RT1CpfB4tRmfm0w9Hz5c-34" value="&lt;b&gt;Windows&lt;/b&gt;" style="rounded=0;whiteSpace=wrap;html=1;fillColor=#6d8764;fontColor=#ffffff;strokeColor=#3A5431;" vertex="1" parent="1">
          <mxGeometry x="125" y="840" width="120" height="40" as="geometry" />
        </mxCell>
        <mxCell id="RT1CpfB4tRmfm0w9Hz5c-35" value="&lt;b&gt;MAC&lt;/b&gt;" style="rounded=0;whiteSpace=wrap;html=1;fillColor=#6d8764;fontColor=#ffffff;strokeColor=#3A5431;" vertex="1" parent="1">
          <mxGeometry x="430" y="840" width="120" height="40" as="geometry" />
        </mxCell>
        <mxCell id="RT1CpfB4tRmfm0w9Hz5c-53" style="edgeStyle=orthogonalEdgeStyle;rounded=0;orthogonalLoop=1;jettySize=auto;html=1;entryX=0.5;entryY=0;entryDx=0;entryDy=0;dashed=1;dashPattern=1 1;" edge="1" parent="1" source="RT1CpfB4tRmfm0w9Hz5c-36" target="RT1CpfB4tRmfm0w9Hz5c-48">
          <mxGeometry relative="1" as="geometry" />
        </mxCell>
        <mxCell id="RT1CpfB4tRmfm0w9Hz5c-36" value="&lt;b&gt;Linux&lt;/b&gt;" style="rounded=0;whiteSpace=wrap;html=1;fillColor=#6d8764;fontColor=#ffffff;strokeColor=#3A5431;" vertex="1" parent="1">
          <mxGeometry x="274" y="840" width="120" height="40" as="geometry" />
        </mxCell>
        <mxCell id="RT1CpfB4tRmfm0w9Hz5c-38" value="1.copy&lt;br&gt;2.paste&lt;br&gt;3.Move&lt;br&gt;4.Rename&lt;br&gt;5.File and folder explorer&lt;br&gt;6.login user &amp;gt;&amp;gt;who amI&lt;br&gt;7.Working directory&amp;gt; whereAmI" style="rounded=0;whiteSpace=wrap;html=1;fillColor=#647687;fontColor=#ffffff;strokeColor=#314354;" vertex="1" parent="1">
          <mxGeometry x="125" y="960" width="120" height="220" as="geometry" />
        </mxCell>
        <mxCell id="RT1CpfB4tRmfm0w9Hz5c-40" value="&lt;b&gt;Windows Operations&lt;/b&gt;" style="rounded=1;whiteSpace=wrap;html=1;fillColor=#fa6800;fontColor=#000000;strokeColor=#C73500;" vertex="1" parent="1">
          <mxGeometry x="60" y="900" width="120" height="30" as="geometry" />
        </mxCell>
        <mxCell id="RT1CpfB4tRmfm0w9Hz5c-41" style="edgeStyle=orthogonalEdgeStyle;rounded=0;orthogonalLoop=1;jettySize=auto;html=1;entryX=0.383;entryY=0;entryDx=0;entryDy=0;entryPerimeter=0;" edge="1" parent="1" source="RT1CpfB4tRmfm0w9Hz5c-33" target="RT1CpfB4tRmfm0w9Hz5c-34">
          <mxGeometry relative="1" as="geometry" />
        </mxCell>
        <mxCell id="RT1CpfB4tRmfm0w9Hz5c-48" value="Division" style="whiteSpace=wrap;html=1;align=center;verticalAlign=middle;treeFolding=1;treeMoving=1;newEdgeStyle={&quot;edgeStyle&quot;:&quot;elbowEdgeStyle&quot;,&quot;startArrow&quot;:&quot;none&quot;,&quot;endArrow&quot;:&quot;none&quot;};" vertex="1" parent="1">
          <mxGeometry x="290" y="960" width="116" height="220" as="geometry" />
        </mxCell>
        <mxCell id="RT1CpfB4tRmfm0w9Hz5c-51" value="Division" style="whiteSpace=wrap;html=1;align=center;verticalAlign=middle;treeFolding=1;treeMoving=1;newEdgeStyle={&quot;edgeStyle&quot;:&quot;elbowEdgeStyle&quot;,&quot;startArrow&quot;:&quot;none&quot;,&quot;endArrow&quot;:&quot;none&quot;};" vertex="1" parent="1">
          <mxGeometry x="425" y="960" width="115" height="220" as="geometry" />
        </mxCell>
        <mxCell id="RT1CpfB4tRmfm0w9Hz5c-54" style="edgeStyle=orthogonalEdgeStyle;rounded=0;orthogonalLoop=1;jettySize=auto;html=1;entryX=0.652;entryY=0.045;entryDx=0;entryDy=0;entryPerimeter=0;dashed=1;dashPattern=1 1;" edge="1" parent="1" source="RT1CpfB4tRmfm0w9Hz5c-35" target="RT1CpfB4tRmfm0w9Hz5c-51">
          <mxGeometry relative="1" as="geometry" />
        </mxCell>
      </root>
    </mxGraphModel>
  </diagram>
</mxfile>
